<svg width="83" height="32" viewBox="0 0 83 32" fill="none" xmlns="http://www.w3.org/2000/svg">
<path d="M8.208 25.36C6.928 25.36 5.774 25.134 4.746 24.682C3.718 24.23 2.874 23.582 2.214 22.738C1.554 21.894 1.136 20.888 0.96 19.72L4.368 19.216C4.608 20.208 5.104 20.972 5.856 21.508C6.608 22.044 7.464 22.312 8.424 22.312C8.96 22.312 9.48 22.228 9.984 22.06C10.488 21.892 10.902 21.644 11.226 21.316C11.55 20.988 11.712 20.584 11.712 20.104C11.712 19.928 11.686 19.758 11.634 19.594C11.582 19.43 11.496 19.276 11.376 19.132C11.256 18.988 11.086 18.852 10.866 18.724C10.646 18.596 10.368 18.48 10.032 18.376L5.544 17.056C5.208 16.96 4.818 16.824 4.374 16.648C3.93 16.472 3.5 16.22 3.084 15.892C2.668 15.564 2.322 15.13 2.046 14.59C1.77 14.05 1.632 13.368 1.632 12.544C1.632 11.384 1.924 10.42 2.508 9.652C3.092 8.884 3.872 8.312 4.848 7.936C5.824 7.56 6.904 7.376 8.088 7.384C9.28 7.4 10.344 7.604 11.28 7.996C12.216 8.388 13 8.958 13.632 9.706C14.264 10.454 14.72 11.368 15 12.448L11.472 13.048C11.344 12.488 11.108 12.016 10.764 11.632C10.42 11.248 10.01 10.956 9.534 10.756C9.058 10.556 8.56 10.448 8.04 10.432C7.528 10.416 7.046 10.486 6.594 10.642C6.142 10.798 5.774 11.024 5.49 11.32C5.206 11.616 5.064 11.968 5.064 12.376C5.064 12.752 5.18 13.058 5.412 13.294C5.644 13.53 5.936 13.72 6.288 13.864C6.64 14.008 7 14.128 7.368 14.224L10.368 15.04C10.816 15.16 11.312 15.318 11.856 15.514C12.4 15.71 12.922 15.982 13.422 16.33C13.922 16.678 14.334 17.136 14.658 17.704C14.982 18.272 15.144 18.992 15.144 19.864C15.144 20.792 14.95 21.602 14.562 22.294C14.174 22.986 13.652 23.558 12.996 24.01C12.34 24.462 11.598 24.8 10.77 25.024C9.942 25.248 9.088 25.36 8.208 25.36ZM24.36 25C23.464 25.168 22.586 25.242 21.726 25.222C20.866 25.202 20.098 25.05 19.422 24.766C18.746 24.482 18.232 24.024 17.88 23.392C17.56 22.8 17.392 22.198 17.376 21.586C17.36 20.974 17.352 20.28 17.352 19.504V8.44H20.616V19.312C20.616 19.816 20.622 20.27 20.634 20.674C20.646 21.078 20.728 21.4 20.88 21.64C21.168 22.096 21.628 22.344 22.26 22.384C22.892 22.424 23.592 22.392 24.36 22.288V25ZM15.144 14.56V12.04H24.36V14.56H15.144ZM26.04 25V12.04H28.92V15.208L28.608 14.8C28.776 14.352 29 13.944 29.28 13.576C29.56 13.208 29.904 12.904 30.312 12.664C30.624 12.472 30.964 12.322 31.332 12.214C31.7 12.106 32.08 12.038 32.472 12.01C32.864 11.982 33.256 11.992 33.648 12.04V15.088C33.288 14.976 32.87 14.938 32.394 14.974C31.918 15.01 31.488 15.12 31.104 15.304C30.72 15.48 30.396 15.714 30.132 16.006C29.868 16.298 29.668 16.642 29.532 17.038C29.396 17.434 29.328 17.88 29.328 18.376V25H26.04ZM34.968 10.24V7.36H38.232V10.24H34.968ZM34.968 25V12.04H38.232V25H34.968ZM45.888 25.36C44.696 25.36 43.652 25.06 42.756 24.46C41.86 23.86 41.162 23.044 40.662 22.012C40.162 20.98 39.912 19.816 39.912 18.52C39.912 17.2 40.166 16.026 40.674 14.998C41.182 13.97 41.896 13.16 42.816 12.568C43.736 11.976 44.816 11.68 46.056 11.68C47.288 11.68 48.324 11.98 49.164 12.58C50.004 13.18 50.64 13.996 51.072 15.028C51.504 16.06 51.72 17.224 51.72 18.52C51.72 19.816 51.502 20.98 51.066 22.012C50.63 23.044 49.98 23.86 49.116 24.46C48.252 25.06 47.176 25.36 45.888 25.36ZM46.416 22.456C47.144 22.456 47.726 22.292 48.162 21.964C48.598 21.636 48.912 21.176 49.104 20.584C49.296 19.992 49.392 19.304 49.392 18.52C49.392 17.736 49.296 17.048 49.104 16.456C48.912 15.864 48.606 15.404 48.186 15.076C47.766 14.748 47.216 14.584 46.536 14.584C45.808 14.584 45.21 14.762 44.742 15.118C44.274 15.474 43.928 15.95 43.704 16.546C43.48 17.142 43.368 17.8 43.368 18.52C43.368 19.248 43.476 19.91 43.692 20.506C43.908 21.102 44.24 21.576 44.688 21.928C45.136 22.28 45.712 22.456 46.416 22.456ZM49.392 25V16.12H48.984V7.72H52.272V25H49.392ZM60.456 25.36C59.128 25.36 57.958 25.074 56.946 24.502C55.934 23.93 55.142 23.142 54.57 22.138C53.998 21.134 53.712 19.984 53.712 18.688C53.712 17.272 53.992 16.04 54.552 14.992C55.112 13.944 55.884 13.13 56.868 12.55C57.852 11.97 58.984 11.68 60.264 11.68C61.624 11.68 62.78 12 63.732 12.64C64.684 13.28 65.388 14.18 65.844 15.34C66.3 16.5 66.46 17.864 66.324 19.432H63.096V18.232C63.096 16.912 62.886 15.962 62.466 15.382C62.046 14.802 61.36 14.512 60.408 14.512C59.296 14.512 58.478 14.85 57.954 15.526C57.43 16.202 57.168 17.2 57.168 18.52C57.168 19.728 57.43 20.662 57.954 21.322C58.478 21.982 59.248 22.312 60.264 22.312C60.904 22.312 61.452 22.172 61.908 21.892C62.364 21.612 62.712 21.208 62.952 20.68L66.216 21.616C65.728 22.8 64.958 23.72 63.906 24.376C62.854 25.032 61.704 25.36 60.456 25.36ZM56.16 19.432V17.008H64.752V19.432H56.16ZM66.384 25L72.192 16.264L66.552 7.72H70.56L74.232 13.48L77.856 7.72H81.888L76.248 16.264L82.032 25H78.024L74.232 19.048L70.416 25H66.384Z" fill="#4ADE80"/>
</svg>
