<svg width="40" height="40" viewBox="0 0 40 40" fill="none" xmlns="http://www.w3.org/2000/svg">
<rect width="40" height="40" rx="20" fill="url(#paint0_linear_2_38)"/>
<path d="M18.4617 23.5C18.8783 23.9167 19.4033 24.1125 20.0367 24.0875C20.67 24.0625 21.1283 23.8333 21.4117 23.4L27.0117 15L18.6117 20.6C18.1783 20.9 17.9408 21.3542 17.8992 21.9625C17.8575 22.5708 18.045 23.0833 18.4617 23.5V23.5M13.1117 28C12.745 28 12.4075 27.9208 12.0992 27.7625C11.7908 27.6042 11.545 27.3667 11.3617 27.05C10.9283 26.2667 10.595 25.4542 10.3617 24.6125C10.1283 23.7708 10.0117 22.9 10.0117 22C10.0117 20.6167 10.2742 19.3167 10.7992 18.1C11.3242 16.8833 12.0367 15.825 12.9367 14.925C13.8367 14.025 14.895 13.3125 16.1117 12.7875C17.3283 12.2625 18.6283 12 20.0117 12C21.3783 12 22.6617 12.2583 23.8617 12.775C25.0617 13.2917 26.1117 13.9958 27.0117 14.8875C27.9117 15.7792 28.6283 16.8208 29.1617 18.0125C29.695 19.2042 29.97 20.4833 29.9867 21.85C30.0033 22.7667 29.8992 23.6625 29.6742 24.5375C29.4492 25.4125 29.1033 26.25 28.6367 27.05C28.4533 27.3667 28.2075 27.6042 27.8992 27.7625C27.5908 27.9208 27.2533 28 26.8867 28H13.1117V28" fill="#005F2E"/>
<defs>
<linearGradient id="paint0_linear_2_38" x1="0" y1="0" x2="40" y2="40" gradientUnits="userSpaceOnUse">
<stop stop-color="#6DFE9C"/>
<stop offset="1" stop-color="#699CFF"/>
</linearGradient>
</defs>
</svg>
