<svg width="18" height="22" viewBox="0 0 18 22" fill="none" xmlns="http://www.w3.org/2000/svg">
<path d="M9 18C6.5 18 4.375 17.125 2.625 15.375C0.875 13.625 0 11.5 0 9C0 6.5 0.875 4.375 2.625 2.625C4.375 0.875 6.5 0 9 0C9.23333 0 9.4625 0.00833333 9.6875 0.025C9.9125 0.0416667 10.1333 0.0666667 10.35 0.1C9.66667 0.583333 9.12083 1.2125 8.7125 1.9875C8.30417 2.7625 8.1 3.6 8.1 4.5C8.1 6 8.625 7.275 9.675 8.325C10.725 9.375 12 9.9 13.5 9.9C14.4167 9.9 15.2583 9.69583 16.025 9.2875C16.7917 8.87917 17.4167 8.33333 17.9 7.65C17.9333 7.86667 17.9583 8.0875 17.975 8.3125C17.9917 8.5375 18 8.76667 18 9C18 11.5 17.125 13.625 15.375 15.375C13.625 17.125 11.5 18 9 18V18" fill="#6DFE9C"/>
</svg>
