<svg width="192" height="216" viewBox="0 0 192 216" fill="none" xmlns="http://www.w3.org/2000/svg">
<path d="M89.025 99.6L91.65 91.05L84.75 85.5H93.3L96 77.1L98.7 85.5H107.25L100.275 91.05L102.9 99.6L96 94.275L89.025 99.6V99.6M78 127.5V104.325C76.1 102.225 74.625 99.825 73.575 97.125C72.525 94.425 72 91.55 72 88.5C72 81.8 74.325 76.125 78.975 71.475C83.625 66.825 89.3 64.5 96 64.5C102.7 64.5 108.375 66.825 113.025 71.475C117.675 76.125 120 81.8 120 88.5C120 91.55 119.475 94.425 118.425 97.125C117.375 99.825 115.9 102.225 114 104.325V127.5L96 121.5L78 127.5V127.5M96 106.5C101 106.5 105.25 104.75 108.75 101.25C112.25 97.75 114 93.5 114 88.5C114 83.5 112.25 79.25 108.75 75.75C105.25 72.25 101 70.5 96 70.5C91 70.5 86.75 72.25 83.25 75.75C79.75 79.25 78 83.5 78 88.5C78 93.5 79.75 97.75 83.25 101.25C86.75 104.75 91 106.5 96 106.5V106.5" fill="#6DFE9C"/>
<path d="M96 182.4C143.685 182.4 182.4 143.685 182.4 96C182.4 48.3145 143.685 9.59999 96 9.59999C48.3145 9.59999 9.59998 48.3145 9.59998 96C9.59998 143.685 48.3145 182.4 96 182.4V182.4" stroke="#002C1B" stroke-width="8"/>
<path d="M96 182.4C143.685 182.4 182.4 143.685 182.4 96C182.4 48.3145 143.685 9.59999 96 9.59999C48.3145 9.59999 9.59998 48.3145 9.59998 96C9.59998 143.685 48.3145 182.4 96 182.4V182.4" stroke="url(#paint0_linear_2_84)" stroke-width="10" stroke-linecap="round" stroke-dasharray="283"/>
<defs>
<linearGradient id="paint0_linear_2_84" x1="9.59998" y1="182.4" x2="182.4" y2="9.60001" gradientUnits="userSpaceOnUse">
<stop stop-color="#6DFE9C"/>
<stop offset="1" stop-color="#699CFF"/>
</linearGradient>
</defs>
</svg>
