<svg width="224" height="220" viewBox="0 0 224 220" fill="none" xmlns="http://www.w3.org/2000/svg">
<path d="M30.68 186.9C27.48 186.9 24.595 186.335 22.025 185.205C19.455 184.075 17.345 182.455 15.695 180.345C14.045 178.235 13 175.72 12.56 172.8L21.08 171.54C21.68 174.02 22.92 175.93 24.8 177.27C26.68 178.61 28.82 179.28 31.22 179.28C32.56 179.28 33.86 179.07 35.12 178.65C36.38 178.23 37.415 177.61 38.225 176.79C39.035 175.97 39.44 174.96 39.44 173.76C39.44 173.32 39.375 172.895 39.245 172.485C39.115 172.075 38.9 171.69 38.6 171.33C38.3 170.97 37.875 170.63 37.325 170.31C36.775 169.99 36.08 169.7 35.24 169.44L24.02 166.14C23.18 165.9 22.205 165.56 21.095 165.12C19.985 164.68 18.91 164.05 17.87 163.23C16.83 162.41 15.965 161.325 15.275 159.975C14.585 158.625 14.24 156.92 14.24 154.86C14.24 151.96 14.97 149.55 16.43 147.63C17.89 145.71 19.84 144.28 22.28 143.34C24.72 142.4 27.42 141.94 30.38 141.96C33.36 142 36.02 142.51 38.36 143.49C40.7 144.47 42.66 145.895 44.24 147.765C45.82 149.635 46.96 151.92 47.66 154.62L38.84 156.12C38.52 154.72 37.93 153.54 37.07 152.58C36.21 151.62 35.185 150.89 33.995 150.39C32.805 149.89 31.56 149.62 30.26 149.58C28.98 149.54 27.775 149.715 26.645 150.105C25.515 150.495 24.595 151.06 23.885 151.8C23.175 152.54 22.82 153.42 22.82 154.44C22.82 155.38 23.11 156.145 23.69 156.735C24.27 157.325 25 157.8 25.88 158.16C26.76 158.52 27.66 158.82 28.58 159.06L36.08 161.1C37.2 161.4 38.44 161.795 39.8 162.285C41.16 162.775 42.465 163.455 43.715 164.325C44.965 165.195 45.995 166.34 46.805 167.76C47.615 169.18 48.02 170.98 48.02 173.16C48.02 175.48 47.535 177.505 46.565 179.235C45.595 180.965 44.29 182.395 42.65 183.525C41.01 184.655 39.155 185.5 37.085 186.06C35.015 186.62 32.88 186.9 30.68 186.9ZM71.06 186C68.82 186.42 66.625 186.605 64.475 186.555C62.325 186.505 60.405 186.125 58.715 185.415C57.025 184.705 55.74 183.56 54.86 181.98C54.06 180.5 53.64 178.995 53.6 177.465C53.56 175.935 53.54 174.2 53.54 172.26V144.6H61.7V171.78C61.7 173.04 61.715 174.175 61.745 175.185C61.775 176.195 61.98 177 62.36 177.6C63.08 178.74 64.23 179.36 65.81 179.46C67.39 179.56 69.14 179.48 71.06 179.22V186ZM48.02 159.9V153.6H71.06V159.9H48.02ZM75.26 186V153.6H82.46V161.52L81.68 160.5C82.1 159.38 82.66 158.36 83.36 157.44C84.06 156.52 84.92 155.76 85.94 155.16C86.72 154.68 87.57 154.305 88.49 154.035C89.41 153.765 90.36 153.595 91.34 153.525C92.32 153.455 93.3 153.48 94.28 153.6V161.22C93.38 160.94 92.335 160.845 91.145 160.935C89.955 161.025 88.88 161.3 87.92 161.76C86.96 162.2 86.15 162.785 85.49 163.515C84.83 164.245 84.33 165.105 83.99 166.095C83.65 167.085 83.48 168.2 83.48 169.44V186H75.26ZM97.58 149.1V141.9H105.74V149.1H97.58ZM97.58 186V153.6H105.74V186H97.58ZM124.88 186.9C121.9 186.9 119.29 186.15 117.05 184.65C114.81 183.15 113.065 181.11 111.815 178.53C110.565 175.95 109.94 173.04 109.94 169.8C109.94 166.5 110.575 163.565 111.845 160.995C113.115 158.425 114.9 156.4 117.2 154.92C119.5 153.44 122.2 152.7 125.3 152.7C128.38 152.7 130.97 153.45 133.07 154.95C135.17 156.45 136.76 158.49 137.84 161.07C138.92 163.65 139.46 166.56 139.46 169.8C139.46 173.04 138.915 175.95 137.825 178.53C136.735 181.11 135.11 183.15 132.95 184.65C130.79 186.15 128.1 186.9 124.88 186.9ZM126.2 179.64C128.02 179.64 129.475 179.23 130.565 178.41C131.655 177.59 132.44 176.44 132.92 174.96C133.4 173.48 133.64 171.76 133.64 169.8C133.64 167.84 133.4 166.12 132.92 164.64C132.44 163.16 131.675 162.01 130.625 161.19C129.575 160.37 128.2 159.96 126.5 159.96C124.68 159.96 123.185 160.405 122.015 161.295C120.845 162.185 119.98 163.375 119.42 164.865C118.86 166.355 118.58 168 118.58 169.8C118.58 171.62 118.85 173.275 119.39 174.765C119.93 176.255 120.76 177.44 121.88 178.32C123 179.2 124.44 179.64 126.2 179.64ZM133.64 186V163.8H132.62V142.8H140.84V186H133.64ZM161.3 186.9C157.98 186.9 155.055 186.185 152.525 184.755C149.995 183.325 148.015 181.355 146.585 178.845C145.155 176.335 144.44 173.46 144.44 170.22C144.44 166.68 145.14 163.6 146.54 160.98C147.94 158.36 149.87 156.325 152.33 154.875C154.79 153.425 157.62 152.7 160.82 152.7C164.22 152.7 167.11 153.5 169.49 155.1C171.87 156.7 173.63 158.95 174.77 161.85C175.91 164.75 176.31 168.16 175.97 172.08H167.9V169.08C167.9 165.78 167.375 163.405 166.325 161.955C165.275 160.505 163.56 159.78 161.18 159.78C158.4 159.78 156.355 160.625 155.045 162.315C153.735 164.005 153.08 166.5 153.08 169.8C153.08 172.82 153.735 175.155 155.045 176.805C156.355 178.455 158.28 179.28 160.82 179.28C162.42 179.28 163.79 178.93 164.93 178.23C166.07 177.53 166.94 176.52 167.54 175.2L175.7 177.54C174.48 180.5 172.555 182.8 169.925 184.44C167.295 186.08 164.42 186.9 161.3 186.9ZM150.56 172.08V166.02H172.04V172.08H150.56Z" fill="#C9FDDE"/>
<path d="M179.12 186L193.64 164.16L179.54 142.8H189.56L198.74 157.2L207.8 142.8H217.88L203.78 164.16L218.24 186H208.22L198.74 171.12L189.2 186H179.12Z" fill="#6DFE9C"/>
<path d="M0.878906 216V208.725H3.36914C3.93555 208.725 4.40186 208.828 4.76807 209.035C5.13428 209.241 5.40609 209.519 5.5835 209.867C5.7609 210.215 5.84961 210.606 5.84961 211.039C5.84961 211.472 5.7609 211.864 5.5835 212.216C5.40609 212.567 5.13509 212.847 4.77051 213.056C4.40592 213.264 3.94043 213.368 3.37402 213.368H1.61133V212.553H3.33008C3.71419 212.553 4.02344 212.487 4.25781 212.355C4.49219 212.223 4.66227 212.042 4.76807 211.813C4.87386 211.583 4.92676 211.326 4.92676 211.039C4.92676 210.753 4.87386 210.496 4.76807 210.27C4.66227 210.044 4.49137 209.866 4.25537 209.735C4.01937 209.605 3.70768 209.54 3.32031 209.54H1.80664V216H0.878906ZM11.2656 216V208.725H15.6992V209.545H12.1934V211.918H15.46V212.738H12.1934V215.18H15.7432V216H11.2656ZM21.2764 216V208.725H23.7666C24.333 208.725 24.7993 208.821 25.1655 209.015C25.5317 209.209 25.8035 209.475 25.981 209.813C26.1584 210.152 26.2471 210.538 26.2471 210.971C26.2471 211.404 26.1584 211.786 25.981 212.118C25.8035 212.45 25.5326 212.71 25.168 212.897C24.8034 213.084 24.3379 213.178 23.7715 213.178H21.7939V212.353H23.7275C24.1117 212.353 24.4201 212.296 24.6528 212.184C24.8856 212.072 25.0557 211.912 25.1631 211.706C25.2705 211.499 25.3242 211.254 25.3242 210.971C25.3242 210.681 25.2705 210.43 25.1631 210.216C25.0557 210.003 24.8848 209.837 24.6504 209.718C24.416 209.599 24.1051 209.54 23.7178 209.54H22.2041V216H21.2764ZM25.4561 216L23.6982 212.724H24.7432L26.5303 216H25.4561ZM31.7119 216V208.725H36.1113V209.545H32.6396V212.035H35.7793V212.855H32.6396V216H31.7119ZM44.5645 216.098C43.9427 216.098 43.3885 215.947 42.9019 215.646C42.4152 215.345 42.0319 214.915 41.752 214.357C41.472 213.799 41.332 213.135 41.332 212.367C41.332 211.596 41.472 210.931 41.752 210.373C42.0319 209.814 42.4152 209.384 42.9019 209.081C43.3885 208.778 43.9427 208.627 44.5645 208.627C45.1862 208.627 45.7396 208.778 46.2246 209.081C46.7096 209.384 47.0913 209.814 47.3696 210.373C47.6479 210.931 47.7871 211.596 47.7871 212.367C47.7871 213.135 47.6479 213.799 47.3696 214.357C47.0913 214.915 46.7096 215.345 46.2246 215.646C45.7396 215.947 45.1862 216.098 44.5645 216.098ZM44.5645 215.238C44.9974 215.238 45.3888 215.128 45.7388 214.909C46.0887 214.689 46.367 214.365 46.5737 213.937C46.7804 213.509 46.8838 212.986 46.8838 212.367C46.8838 211.742 46.7804 211.216 46.5737 210.788C46.367 210.36 46.0887 210.036 45.7388 209.816C45.3888 209.596 44.9974 209.486 44.5645 209.486C44.1283 209.486 43.7344 209.597 43.3828 209.818C43.0312 210.04 42.7521 210.364 42.5454 210.792C42.3387 211.221 42.2354 211.745 42.2354 212.367C42.2354 212.986 42.3387 213.508 42.5454 213.935C42.7521 214.361 43.0312 214.685 43.3828 214.906C43.7344 215.128 44.1283 215.238 44.5645 215.238ZM53.2617 216V208.725H55.752C56.3184 208.725 56.7847 208.821 57.1509 209.015C57.5171 209.209 57.7889 209.475 57.9663 209.813C58.1437 210.152 58.2324 210.538 58.2324 210.971C58.2324 211.404 58.1437 211.786 57.9663 212.118C57.7889 212.45 57.5179 212.71 57.1533 212.897C56.7887 213.084 56.3232 213.178 55.7568 213.178H53.7793V212.353H55.7129C56.097 212.353 56.4054 212.296 56.6382 212.184C56.8709 212.072 57.041 211.912 57.1484 211.706C57.2559 211.499 57.3096 211.254 57.3096 210.971C57.3096 210.681 57.2559 210.43 57.1484 210.216C57.041 210.003 56.8701 209.837 56.6357 209.718C56.4014 209.599 56.0905 209.54 55.7031 209.54H54.1895V216H53.2617ZM57.4414 216L55.6836 212.724H56.7285L58.5156 216H57.4414ZM63.6973 216V208.725H65.0156L66.8076 213.314C66.8499 213.422 66.8979 213.556 66.9517 213.717C67.0054 213.878 67.0623 214.053 67.1226 214.242C67.1828 214.431 67.2406 214.619 67.2959 214.806C67.3512 214.993 67.4001 215.167 67.4424 215.326H67.2373C67.2829 215.176 67.3333 215.01 67.3887 214.826C67.444 214.642 67.5018 214.455 67.562 214.264C67.6222 214.074 67.68 213.896 67.7354 213.729C67.7907 213.563 67.8395 213.425 67.8818 213.314L69.6494 208.725H70.9727V216H70.0596V211.845C70.0596 211.695 70.0604 211.524 70.062 211.332C70.0636 211.14 70.0669 210.938 70.0718 210.727C70.0767 210.515 70.0815 210.3 70.0864 210.082C70.0913 209.864 70.0954 209.652 70.0986 209.447H70.1768C70.1084 209.672 70.036 209.901 69.9595 210.133C69.883 210.366 69.8081 210.591 69.7349 210.807C69.6616 211.024 69.5924 211.221 69.5273 211.4C69.4622 211.579 69.4069 211.728 69.3613 211.845L67.7354 216H66.9297L65.2793 211.845C65.2337 211.731 65.18 211.587 65.1182 211.413C65.0563 211.238 64.9888 211.045 64.9155 210.832C64.8423 210.618 64.7666 210.394 64.6885 210.158C64.6104 209.922 64.5306 209.685 64.4492 209.447H64.5371C64.5436 209.63 64.5493 209.826 64.5542 210.038C64.5591 210.25 64.5632 210.464 64.5664 210.68C64.5697 210.897 64.5729 211.105 64.5762 211.305C64.5794 211.505 64.5811 211.685 64.5811 211.845V216H63.6973ZM76.1055 216L78.7471 208.725H79.8213L82.4971 216H81.5205L79.9775 211.684C79.8831 211.417 79.7733 211.084 79.6479 210.685C79.5226 210.286 79.3704 209.778 79.1914 209.159H79.3672C79.1914 209.784 79.0392 210.299 78.9106 210.705C78.7821 211.11 78.6755 211.436 78.5908 211.684L77.0918 216H76.1055ZM77.4336 213.969V213.158H81.1689V213.969H77.4336ZM87.6299 216V208.725H88.7236L91.6826 213.378C91.7607 213.498 91.8551 213.653 91.9658 213.842C92.0765 214.031 92.1961 214.244 92.3247 214.481C92.4533 214.719 92.5794 214.973 92.7031 215.243H92.5713C92.542 214.963 92.5208 214.695 92.5078 214.44C92.4948 214.184 92.4867 213.949 92.4834 213.734C92.4801 213.52 92.4785 213.337 92.4785 213.188V208.725H93.4062V216H92.3027L89.666 211.859C89.5456 211.667 89.4243 211.47 89.3022 211.266C89.1802 211.063 89.041 210.822 88.8848 210.543C88.7285 210.265 88.5348 209.921 88.3037 209.511H88.4746C88.4909 209.872 88.5055 210.206 88.5186 210.512C88.5316 210.818 88.5422 211.085 88.5503 211.312C88.5584 211.54 88.5625 211.719 88.5625 211.85V216H87.6299ZM102.108 216.098C101.487 216.098 100.932 215.947 100.446 215.646C99.9591 215.345 99.5767 214.915 99.2983 214.357C99.02 213.799 98.8809 213.135 98.8809 212.367C98.8809 211.596 99.02 210.931 99.2983 210.373C99.5767 209.814 99.9591 209.384 100.446 209.081C100.932 208.778 101.487 208.627 102.108 208.627C102.476 208.627 102.824 208.681 103.151 208.788C103.478 208.896 103.772 209.053 104.032 209.259C104.293 209.466 104.51 209.717 104.684 210.011C104.858 210.306 104.978 210.64 105.043 211.015H104.115C104.063 210.764 103.974 210.544 103.849 210.355C103.724 210.167 103.571 210.007 103.39 209.877C103.209 209.747 103.01 209.649 102.792 209.584C102.574 209.519 102.346 209.486 102.108 209.486C101.672 209.486 101.278 209.597 100.927 209.818C100.575 210.04 100.297 210.364 100.092 210.792C99.8867 211.221 99.7842 211.745 99.7842 212.367C99.7842 212.986 99.8875 213.509 100.094 213.937C100.301 214.365 100.58 214.689 100.932 214.909C101.283 215.128 101.675 215.238 102.108 215.238C102.346 215.238 102.574 215.205 102.792 215.138C103.01 215.071 103.209 214.974 103.39 214.845C103.571 214.717 103.724 214.557 103.849 214.367C103.974 214.176 104.063 213.957 104.115 213.71H105.043C104.981 214.081 104.863 214.413 104.689 214.706C104.515 214.999 104.298 215.25 104.037 215.458C103.777 215.666 103.483 215.825 103.156 215.934C102.829 216.043 102.479 216.098 102.108 216.098ZM110.469 216V208.725H114.902V209.545H111.396V211.918H114.663V212.738H111.396V215.18H114.946V216H110.469ZM130.139 216.117C129.566 216.117 129.065 216.005 128.637 215.78C128.209 215.556 127.878 215.248 127.644 214.857C127.409 214.467 127.292 214.022 127.292 213.524V208.725H128.22V213.451C128.22 213.799 128.297 214.11 128.452 214.381C128.606 214.653 128.827 214.867 129.113 215.023C129.4 215.18 129.742 215.258 130.139 215.258C130.536 215.258 130.877 215.18 131.162 215.023C131.446 214.867 131.665 214.653 131.818 214.381C131.971 214.11 132.048 213.799 132.048 213.451V208.725H132.976V213.524C132.976 214.022 132.858 214.467 132.624 214.857C132.39 215.248 132.06 215.556 131.635 215.78C131.21 216.005 130.712 216.117 130.139 216.117ZM138.733 216V208.725H139.827L142.786 213.378C142.864 213.498 142.959 213.653 143.069 213.842C143.18 214.031 143.3 214.244 143.428 214.481C143.557 214.719 143.683 214.973 143.807 215.243H143.675C143.646 214.963 143.624 214.695 143.611 214.44C143.598 214.184 143.59 213.949 143.587 213.734C143.584 213.52 143.582 213.337 143.582 213.188V208.725H144.51V216H143.406L140.77 211.859C140.649 211.667 140.528 211.47 140.406 211.266C140.284 211.063 140.145 210.822 139.988 210.543C139.832 210.265 139.638 209.921 139.407 209.511H139.578C139.594 209.872 139.609 210.206 139.622 210.512C139.635 210.818 139.646 211.085 139.654 211.312C139.662 211.54 139.666 211.719 139.666 211.85V216H138.733ZM150.268 216V208.725H151.195V215.18H154.564V216H150.268ZM159.922 216V208.725H164.355V209.545H160.85V211.918H164.116V212.738H160.85V215.18H164.399V216H159.922ZM169.308 216L171.949 208.725H173.023L175.699 216H174.723L173.18 211.684C173.085 211.417 172.975 211.084 172.85 210.685C172.725 210.286 172.573 209.778 172.394 209.159H172.569C172.394 209.784 172.241 210.299 172.113 210.705C171.984 211.11 171.878 211.436 171.793 211.684L170.294 216H169.308ZM170.636 213.969V213.158H174.371V213.969H170.636ZM183.161 216.127C182.637 216.127 182.182 216.042 181.796 215.873C181.411 215.704 181.109 215.467 180.891 215.163C180.673 214.858 180.549 214.503 180.52 214.096H181.472C181.498 214.369 181.59 214.595 181.75 214.772C181.91 214.949 182.114 215.081 182.363 215.167C182.612 215.254 182.878 215.297 183.161 215.297C183.49 215.297 183.785 215.243 184.047 215.136C184.309 215.028 184.517 214.877 184.67 214.682C184.823 214.486 184.899 214.26 184.899 214.003C184.899 213.769 184.833 213.578 184.702 213.432C184.57 213.285 184.395 213.165 184.177 213.07C183.959 212.976 183.719 212.893 183.459 212.821L182.58 212.572C181.994 212.406 181.538 212.169 181.213 211.859C180.887 211.55 180.725 211.155 180.725 210.673C180.725 210.263 180.835 209.904 181.057 209.596C181.278 209.289 181.577 209.05 181.955 208.881C182.333 208.712 182.756 208.627 183.225 208.627C183.703 208.627 184.126 208.712 184.494 208.881C184.862 209.05 185.153 209.28 185.366 209.572C185.579 209.863 185.692 210.193 185.705 210.561H184.797C184.755 210.206 184.585 209.931 184.289 209.738C183.993 209.544 183.628 209.447 183.195 209.447C182.883 209.447 182.609 209.499 182.373 209.601C182.137 209.704 181.953 209.844 181.823 210.021C181.693 210.198 181.628 210.401 181.628 210.629C181.628 210.883 181.707 211.087 181.865 211.242C182.023 211.396 182.21 211.517 182.426 211.603C182.643 211.689 182.839 211.757 183.015 211.806L183.742 212.006C183.938 212.058 184.153 212.13 184.389 212.221C184.625 212.312 184.851 212.433 185.065 212.584C185.28 212.736 185.457 212.928 185.595 213.161C185.734 213.393 185.803 213.679 185.803 214.018C185.803 214.415 185.699 214.773 185.493 215.092C185.286 215.411 184.986 215.663 184.592 215.849C184.198 216.034 183.721 216.127 183.161 216.127ZM191.248 216V208.725H192.176V211.869H195.994V208.725H196.922V216H195.994V212.689H192.176V216H191.248ZM202.68 216V208.725H207.113V209.545H203.607V211.918H206.874V212.738H203.607V215.18H207.157V216H202.68ZM214.961 216H213.203V215.18H214.902C215.495 215.18 215.986 215.067 216.375 214.84C216.764 214.614 217.054 214.289 217.246 213.866C217.438 213.443 217.534 212.937 217.534 212.348C217.534 211.765 217.439 211.264 217.249 210.846C217.058 210.428 216.775 210.106 216.399 209.882C216.023 209.657 215.553 209.545 214.99 209.545H213.164V208.725H215.054C215.763 208.725 216.37 208.869 216.873 209.159C217.375 209.449 217.761 209.865 218.03 210.407C218.298 210.949 218.433 211.596 218.433 212.348C218.433 213.106 218.298 213.758 218.027 214.303C217.757 214.848 217.363 215.268 216.846 215.561C216.328 215.854 215.7 216 214.961 216ZM213.618 208.725V216H212.69V208.725H213.618Z" fill="#85B69A"/>
<rect x="48.015" y="53" width="127" height="127" rx="63.5" stroke="#6DFE9C" stroke-opacity="0.2"/>
<rect x="24.02" y="29" width="175" height="175" rx="87.5" stroke="#699CFF" stroke-opacity="0.1"/>
<rect x="63.52" y="13" width="96" height="96" rx="48" fill="#002516"/>
<g filter="url(#filter0_d_2_9)">
<rect x="63.52" y="13" width="96" height="96" rx="48" fill="white" fill-opacity="0.01" shape-rendering="crispEdges"/>
</g>
<path d="M115.52 82.5V70.5L111.32 66.5L109.32 75.3L95.52 72.5L96.32 68.5L105.92 70.5L109.12 54.3L105.52 55.7V62.5H101.52V53.1L109.42 49.7C110.587 49.2 111.445 48.875 111.995 48.725C112.545 48.575 113.053 48.5 113.52 48.5C114.22 48.5 114.87 48.6833 115.47 49.05C116.07 49.4167 116.553 49.9 116.92 50.5L118.92 53.7C119.787 55.1 120.962 56.25 122.445 57.15C123.928 58.05 125.62 58.5 127.52 58.5V62.5C125.32 62.5 123.262 62.0417 121.345 61.125C119.428 60.2083 117.82 59 116.52 57.5L115.32 63.5L119.52 67.5V82.5H115.52V82.5M116.52 47.5C115.42 47.5 114.478 47.1083 113.695 46.325C112.912 45.5417 112.52 44.6 112.52 43.5C112.52 42.4 112.912 41.4583 113.695 40.675C114.478 39.8917 115.42 39.5 116.52 39.5C117.62 39.5 118.562 39.8917 119.345 40.675C120.128 41.4583 120.52 42.4 120.52 43.5C120.52 44.6 120.128 45.5417 119.345 46.325C118.562 47.1083 117.62 47.5 116.52 47.5V47.5" fill="url(#paint0_linear_2_9)"/>
<rect opacity="0.1" x="63.52" y="13" width="96" height="96" rx="48" fill="url(#paint1_linear_2_9)"/>
<defs>
<filter id="filter0_d_2_9" x="25.52" y="0" width="172" height="172" filterUnits="userSpaceOnUse" color-interpolation-filters="sRGB">
<feFlood flood-opacity="0" result="BackgroundImageFix"/>
<feColorMatrix in="SourceAlpha" type="matrix" values="0 0 0 0 0 0 0 0 0 0 0 0 0 0 0 0 0 0 127 0" result="hardAlpha"/>
<feMorphology radius="12" operator="erode" in="SourceAlpha" result="effect1_dropShadow_2_9"/>
<feOffset dy="25"/>
<feGaussianBlur stdDeviation="25"/>
<feComposite in2="hardAlpha" operator="out"/>
<feColorMatrix type="matrix" values="0 0 0 0 0 0 0 0 0 0 0 0 0 0 0 0 0 0 0.25 0"/>
<feBlend mode="normal" in2="BackgroundImageFix" result="effect1_dropShadow_2_9"/>
<feBlend mode="normal" in="SourceGraphic" in2="effect1_dropShadow_2_9" result="shape"/>
</filter>
<linearGradient id="paint0_linear_2_9" x1="95.52" y1="39.5" x2="136.709" y2="70.1523" gradientUnits="userSpaceOnUse">
<stop stop-color="#6DFE9C"/>
<stop offset="1" stop-color="#699CFF"/>
</linearGradient>
<linearGradient id="paint1_linear_2_9" x1="63.52" y1="13" x2="159.52" y2="109" gradientUnits="userSpaceOnUse">
<stop stop-color="#6DFE9C"/>
<stop offset="1" stop-color="#699CFF"/>
</linearGradient>
</defs>
</svg>
